<svg width="100" height="100" viewBox="0 0 100 100" xmlns="http://www.w3.org/2000/svg">
  <defs>
    <pattern id="rainySky" patternUnits="userSpaceOnUse" width="100" height="100">
      <line x1="20" y1="0" x2="15" y2="10" stroke="#29B6F6" stroke-width="1" opacity="0.3"/>
      <line x1="40" y1="5" x2="35" y2="15" stroke="#29B6F6" stroke-width="1" opacity="0.3"/>
      <line x1="60" y1="0" x2="55" y2="10" stroke="#29B6F6" stroke-width="1" opacity="0.3"/>
      <line x1="80" y1="5" x2="75" y2="15" stroke="#29B6F6" stroke-width="1" opacity="0.3"/>
      
      <line x1="10" y1="20" x2="5" y2="30" stroke="#29B6F6" stroke-width="1" opacity="0.3"/>
      <line x1="30" y1="25" x2="25" y2="35" stroke="#29B6F6" stroke-width="1" opacity="0.3"/>
      <line x1="50" y1="20" x2="45" y2="30" stroke="#29B6F6" stroke-width="1" opacity="0.3"/>
      <line x1="70" y1="25" x2="65" y2="35" stroke="#29B6F6" stroke-width="1" opacity="0.3"/>
      <line x1="90" y1="20" x2="85" y2="30" stroke="#29B6F6" stroke-width="1" opacity="0.3"/>
      
      <line x1="15" y1="40" x2="10" y2="50" stroke="#29B6F6" stroke-width="1" opacity="0.3"/>
      <line x1="35" y1="45" x2="30" y2="55" stroke="#29B6F6" stroke-width="1" opacity="0.3"/>
      <line x1="55" y1="40" x2="50" y2="50" stroke="#29B6F6" stroke-width="1" opacity="0.3"/>
      <line x1="75" y1="45" x2="70" y2="55" stroke="#29B6F6" stroke-width="1" opacity="0.3"/>
      <line x1="95" y1="40" x2="90" y2="50" stroke="#29B6F6" stroke-width="1" opacity="0.3"/>
      
      <line x1="20" y1="60" x2="15" y2="70" stroke="#29B6F6" stroke-width="1" opacity="0.3"/>
      <line x1="40" y1="65" x2="35" y2="75" stroke="#29B6F6" stroke-width="1" opacity="0.3"/>
      <line x1="60" y1="60" x2="55" y2="70" stroke="#29B6F6" stroke-width="1" opacity="0.3"/>
      <line x1="80" y1="65" x2="75" y2="75" stroke="#29B6F6" stroke-width="1" opacity="0.3"/>
      
      <line x1="10" y1="80" x2="5" y2="90" stroke="#29B6F6" stroke-width="1" opacity="0.3"/>
      <line x1="30" y1="85" x2="25" y2="95" stroke="#29B6F6" stroke-width="1" opacity="0.3"/>
      <line x1="50" y1="80" x2="45" y2="90" stroke="#29B6F6" stroke-width="1" opacity="0.3"/>
      <line x1="70" y1="85" x2="65" y2="95" stroke="#29B6F6" stroke-width="1" opacity="0.3"/>
      <line x1="90" y1="80" x2="85" y2="90" stroke="#29B6F6" stroke-width="1" opacity="0.3"/>
    </pattern>
  </defs>
  <rect width="100%" height="100%" fill="url(#rainySky)"/>
</svg> 