<svg width="32" height="32" viewBox="0 0 32 32" xmlns="http://www.w3.org/2000/svg">
  <defs>
    <linearGradient id="skyGradient" x1="0%" y1="0%" x2="100%" y2="100%">
      <stop offset="0%" style="stop-color:#2196F3"/>
      <stop offset="100%" style="stop-color:#1976D2"/>
    </linearGradient>
    <linearGradient id="sunGradient" x1="0%" y1="0%" x2="100%" y2="100%">
      <stop offset="0%" style="stop-color:#FFC107"/>
      <stop offset="100%" style="stop-color:#FFA000"/>
    </linearGradient>
  </defs>
  
  <!-- Fond du ciel -->
  <rect x="2" y="2" width="28" height="28" rx="8" fill="url(#skyGradient)"/>
  
  <!-- Soleil -->
  <circle cx="12" cy="12" r="5" fill="url(#sunGradient)"/>
  
  <!-- Nuage -->
  <path d="M16 14c-0.7-2-2.5-3-4.5-3s-4 1.5-4 3.5c0 0.3 0 0.5 0.1 0.8C6.7 15.7 6 16.7 6 18c0 1.7 1.3 3 3 3h10c1.7 0 3-1.3 3-3 0-1.5-1.2-2.7-2.7-3C19.1 13.8 17.7 13 16 14z" fill="white" opacity="0.9"/>
  
  <!-- Gouttes de pluie -->
  <circle cx="10" cy="23" r="1" fill="#E3F2FD" opacity="0.8"/>
  <circle cx="14" cy="25" r="1" fill="#E3F2FD" opacity="0.8"/>
  <circle cx="18" cy="23" r="1" fill="#E3F2FD" opacity="0.8"/>
</svg>