<svg width="48" height="48" viewBox="0 0 48 48" xmlns="http://www.w3.org/2000/svg">
  <defs>
    <linearGradient id="logoGradient" x1="0%" y1="0%" x2="100%" y2="100%">
      <stop offset="0%" style="stop-color:#4CAF50"/>
      <stop offset="100%" style="stop-color:#2E7D32"/>
    </linearGradient>
    <filter id="dropShadow" height="130%">
      <feGaussianBlur in="SourceAlpha" stdDeviation="1"/>
      <feOffset dx="0" dy="1" result="offsetblur"/>
      <feComponentTransfer>
        <feFuncA type="linear" slope="0.2"/>
      </feComponentTransfer>
      <feMerge>
        <feMergeNode/>
        <feMergeNode in="SourceGraphic"/>
      </feMerge>
    </filter>
  </defs>
  
  <!-- Fond du logo avec dégradé -->
  <rect x="4" y="4" width="40" height="40" rx="12" fill="url(#logoGradient)" filter="url(#dropShadow)"/>
  
  <!-- Symbole de feuille stylisé -->
  <path d="M24 12c-6 0-10 4-10 10 0 6 10 14 10 14s10-8 10-14c0-6-4-10-10-10zm0 4c3.3 0 6 2.7 6 6 0 0.3 0 0.7-0.1 1h-3.4c0.3-0.3 0.5-0.6 0.5-1 0-1.1-0.9-2-2-2s-2 0.9-2 2c0 0.4 0.2 0.7 0.5 1h-3.4c-0.1-0.3-0.1-0.7-0.1-1 0-3.3 2.7-6 6-6z" fill="white"/>
  
  <!-- Goutte d'eau -->
  <circle cx="34" cy="28" r="2" fill="#E3F2FD" opacity="0.8"/>
</svg>